# Phase 3 generated mesh
o mesh
v -49.442715 30.557285 49.442715
v 80.000000 110.557285 0.000000
v 80.000000 49.442715 0.000000
v -80.000000 110.557285 0.000000
v -80.000000 49.442715 0.000000
v 0.000000 160.000000 30.557285
v 0.000000 160.000000 -30.557285
v 30.557285 80.000000 -80.000000
v -30.557285 80.000000 -80.000000
v 0.000000 0.000000 -30.557285
v 0.000000 0.000000 30.557285
v 30.557285 80.000000 80.000000
v -30.557285 80.000000 80.000000
v 49.442715 129.442715 -49.442715
v 49.442715 129.442715 49.442715
v -49.442715 129.442715 -49.442715
v -49.442715 129.442715 49.442715
v 49.442715 30.557285 -49.442715
v 49.442715 30.557285 49.442715
v -49.442715 30.557285 -49.442715
f 19 3 2
f 12 19 2
f 15 12 2
f 8 14 2
f 18 8 2
f 3 18 2
f 20 5 4
f 9 20 4
f 16 9 4
f 13 17 4
f 1 13 4
f 5 1 4
f 7 16 4
f 6 7 4
f 17 6 4
f 6 15 2
f 7 6 2
f 14 7 2
f 10 18 3
f 11 10 3
f 19 11 3
f 11 1 5
f 10 11 5
f 20 10 5
f 20 9 8
f 10 20 8
f 18 10 8
f 9 16 7
f 8 9 7
f 14 8 7
f 12 15 6
f 13 12 6
f 17 13 6
f 13 1 11
f 12 13 11
f 19 12 11
