# Phase 3 generated mesh
o mesh
v -22.608696 0.000000 -45.217391
v 67.826087 0.000000 -45.217391
v 67.826087 452.173913 -45.217391
v -22.608696 452.173913 -45.217391
v -22.608696 0.000000 45.217391
v 67.826087 0.000000 45.217391
v 67.826087 452.173913 45.217391
v -22.608696 452.173913 45.217391
v -203.478261 384.347826 -79.130435
v 248.695652 384.347826 -79.130435
v 248.695652 520.000000 -79.130435
v -203.478261 520.000000 -79.130435
v -203.478261 384.347826 79.130435
v 248.695652 384.347826 79.130435
v 248.695652 520.000000 79.130435
v -203.478261 520.000000 79.130435
v -248.695652 406.956522 -50.869565
v -203.478261 406.956522 -50.869565
v -203.478261 497.391304 -50.869565
v -248.695652 497.391304 -50.869565
v -248.695652 406.956522 50.869565
v -203.478261 406.956522 50.869565
v -203.478261 497.391304 50.869565
v -248.695652 497.391304 50.869565
f 1 2 3
f 1 3 4
f 6 5 8
f 6 8 7
f 5 1 4
f 5 4 8
f 2 6 7
f 2 7 3
f 4 3 7
f 4 7 8
f 5 6 2
f 5 2 1
f 9 10 11
f 9 11 12
f 14 13 16
f 14 16 15
f 13 9 12
f 13 12 16
f 10 14 15
f 10 15 11
f 12 11 15
f 12 15 16
f 13 14 10
f 13 10 9
f 17 18 19
f 17 19 20
f 22 21 24
f 22 24 23
f 21 17 20
f 21 20 24
f 18 22 23
f 18 23 19
f 20 19 23
f 20 23 24
f 21 22 18
f 21 18 17
