# Phase 3 generated mesh
o mesh
v 60.000000 120.000000 60.000000
v 60.000000 120.000000 60.000000
v 60.000000 120.000000 60.000000
v 60.000000 120.000000 60.000000
v 60.000000 120.000000 60.000000
v 60.000000 120.000000 60.000000
v 60.000000 120.000000 60.000000
v 60.000000 120.000000 60.000000
v 60.000000 120.000000 60.000000
v 60.000000 120.000000 60.000000
v 60.000000 120.000000 60.000000
v 60.000000 120.000000 60.000000
v 60.000000 120.000000 60.000000
v 60.000000 120.000000 60.000000
v 60.000000 120.000000 60.000000
v 60.000000 120.000000 60.000000
v 60.000000 120.000000 60.000000
v 60.000000 120.000000 60.000000
v 60.000000 120.000000 60.000000
v 60.000000 120.000000 60.000000
v 60.000000 120.000000 60.000000
v 60.000000 120.000000 60.000000
v 60.000000 120.000000 60.000000
v 60.000000 120.000000 60.000000
v 60.000000 120.000000 60.000000
v 60.000000 120.000000 60.000000
v 60.000000 120.000000 60.000000
v 60.000000 120.000000 60.000000
v 69.386068 119.261300 60.000000
v 69.150740 119.261300 62.088597
v 68.456555 119.261300 64.072462
v 67.338323 119.261300 65.852118
v 65.852118 119.261300 67.338323
v 64.072462 119.261300 68.456555
v 62.088597 119.261300 69.150740
v 60.000000 119.261300 69.386068
v 57.911403 119.261300 69.150740
v 55.927538 119.261300 68.456555
v 54.147882 119.261300 67.338323
v 52.661677 119.261300 65.852118
v 51.543445 119.261300 64.072462
v 50.849260 119.261300 62.088597
v 50.613932 119.261300 60.000000
v 50.849260 119.261300 57.911403
v 51.543445 119.261300 55.927538
v 52.661677 119.261300 54.147882
v 54.147882 119.261300 52.661677
v 55.927538 119.261300 51.543445
v 57.911403 119.261300 50.849260
v 60.000000 119.261300 50.613932
v 62.088597 119.261300 50.849260
v 64.072462 119.261300 51.543445
v 65.852118 119.261300 52.661677
v 67.338323 119.261300 54.147882
v 68.456555 119.261300 55.927538
v 69.150740 119.261300 57.911403
v 78.541020 117.063391 60.000000
v 78.076158 117.063391 64.125765
v 76.704881 117.063391 68.044647
v 74.495953 117.063391 71.560137
v 71.560137 117.063391 74.495953
v 68.044647 117.063391 76.704881
v 64.125765 117.063391 78.076158
v 60.000000 117.063391 78.541020
v 55.874235 117.063391 78.076158
v 51.955353 117.063391 76.704881
v 48.439863 117.063391 74.495953
v 45.504047 117.063391 71.560137
v 43.295119 117.063391 68.044647
v 41.923842 117.063391 64.125765
v 41.458980 117.063391 60.000000
v 41.923842 117.063391 55.874235
v 43.295119 117.063391 51.955353
v 45.504047 117.063391 48.439863
v 48.439863 117.063391 45.504047
v 51.955353 117.063391 43.295119
v 55.874235 117.063391 41.923842
v 60.000000 117.063391 41.458980
v 64.125765 117.063391 41.923842
v 68.044647 117.063391 43.295119
v 71.560137 117.063391 45.504047
v 74.495953 117.063391 48.439863
v 76.704881 117.063391 51.955353
v 78.076158 117.063391 55.874235
v 87.239430 113.460391 60.000000
v 86.556481 113.460391 66.061343
v 84.541878 113.460391 71.818746
v 81.296644 113.460391 76.983507
v 76.983507 113.460391 81.296644
v 71.818746 113.460391 84.541878
v 66.061343 113.460391 86.556481
v 60.000000 113.460391 87.239430
v 53.938657 113.460391 86.556481
v 48.181254 113.460391 84.541878
v 43.016493 113.460391 81.296644
v 38.703356 113.460391 76.983507
v 35.458122 113.460391 71.818746
v 33.443519 113.460391 66.061343
v 32.760570 113.460391 60.000000
v 33.443519 113.460391 53.938657
v 35.458122 113.460391 48.181254
v 38.703356 113.460391 43.016493
v 43.016493 113.460391 38.703356
v 48.181254 113.460391 35.458122
v 53.938657 113.460391 33.443519
v 60.000000 113.460391 32.760570
v 66.061343 113.460391 33.443519
v 71.818746 113.460391 35.458122
v 76.983507 113.460391 38.703356
v 81.296644 113.460391 43.016493
v 84.541878 113.460391 48.181254
v 86.556481 113.460391 53.938657
v 95.267115 108.541020 60.000000
v 94.382895 108.541020 67.847671
v 91.774573 108.541020 75.301828
v 87.572941 108.541020 81.988687
v 81.988687 108.541020 87.572941
v 75.301828 108.541020 91.774573
v 67.847671 108.541020 94.382895
v 60.000000 108.541020 95.267115
v 52.152329 108.541020 94.382895
v 44.698172 108.541020 91.774573
v 38.011313 108.541020 87.572941
v 32.427059 108.541020 81.988687
v 28.225427 108.541020 75.301828
v 25.617105 108.541020 67.847671
v 24.732885 108.541020 60.000000
v 25.617105 108.541020 52.152329
v 28.225427 108.541020 44.698172
v 32.427059 108.541020 38.011313
v 38.011313 108.541020 32.427059
v 44.698172 108.541020 28.225427
v 52.152329 108.541020 25.617105
v 60.000000 108.541020 24.732885
v 67.847671 108.541020 25.617105
v 75.301828 108.541020 28.225427
v 81.988687 108.541020 32.427059
v 87.572941 108.541020 38.011313
v 91.774573 108.541020 44.698172
v 94.382895 108.541020 52.152329
v 102.426407 102.426407 60.000000
v 101.362688 102.426407 69.440764
v 98.224872 102.426407 78.408128
v 93.170301 102.426407 86.452432
v 86.452432 102.426407 93.170301
v 78.408128 102.426407 98.224872
v 69.440764 102.426407 101.362688
v 60.000000 102.426407 102.426407
v 50.559236 102.426407 101.362688
v 41.591872 102.426407 98.224872
v 33.547568 102.426407 93.170301
v 26.829699 102.426407 86.452432
v 21.775128 102.426407 78.408128
v 18.637312 102.426407 69.440764
v 17.573593 102.426407 60.000000
v 18.637312 102.426407 50.559236
v 21.775128 102.426407 41.591872
v 26.829699 102.426407 33.547568
v 33.547568 102.426407 26.829699
v 41.591872 102.426407 21.775128
v 50.559236 102.426407 18.637312
v 60.000000 102.426407 17.573593
v 69.440764 102.426407 18.637312
v 78.408128 102.426407 21.775128
v 86.452432 102.426407 26.829699
v 93.170301 102.426407 33.547568
v 98.224872 102.426407 41.591872
v 101.362688 102.426407 50.559236
v 108.541020 95.267115 60.000000
v 107.323995 95.267115 70.801393
v 103.733948 95.267115 81.061159
v 97.950897 95.267115 90.264831
v 90.264831 95.267115 97.950897
v 81.061159 95.267115 103.733948
v 70.801393 95.267115 107.323995
v 60.000000 95.267115 108.541020
v 49.198607 95.267115 107.323995
v 38.938841 95.267115 103.733948
v 29.735169 95.267115 97.950897
v 22.049103 95.267115 90.264831
v 16.266052 95.267115 81.061159
v 12.676005 95.267115 70.801393
v 11.458980 95.267115 60.000000
v 12.676005 95.267115 49.198607
v 16.266052 95.267115 38.938841
v 22.049103 95.267115 29.735169
v 29.735169 95.267115 22.049103
v 38.938841 95.267115 16.266052
v 49.198607 95.267115 12.676005
v 60.000000 95.267115 11.458980
v 70.801393 95.267115 12.676005
v 81.061159 95.267115 16.266052
v 90.264831 95.267115 22.049103
v 97.950897 95.267115 29.735169
v 103.733948 95.267115 38.938841
v 107.323995 95.267115 49.198607
v 113.460391 87.239430 60.000000
v 112.120028 87.239430 71.896056
v 108.166148 87.239430 83.195595
v 101.797017 87.239430 93.332009
v 93.332009 87.239430 101.797017
v 83.195595 87.239430 108.166148
v 71.896056 87.239430 112.120028
v 60.000000 87.239430 113.460391
v 48.103944 87.239430 112.120028
v 36.804405 87.239430 108.166148
v 26.667991 87.239430 101.797017
v 18.202983 87.239430 93.332009
v 11.833852 87.239430 83.195595
v 7.879972 87.239430 71.896056
v 6.539609 87.239430 60.000000
v 7.879972 87.239430 48.103944
v 11.833852 87.239430 36.804405
v 18.202983 87.239430 26.667991
v 26.667991 87.239430 18.202983
v 36.804405 87.239430 11.833852
v 48.103944 87.239430 7.879972
v 60.000000 87.239430 6.539609
v 71.896056 87.239430 7.879972
v 83.195595 87.239430 11.833852
v 93.332009 87.239430 18.202983
v 101.797017 87.239430 26.667991
v 108.166148 87.239430 36.804405
v 112.120028 87.239430 48.103944
v 117.063391 78.541020 60.000000
v 115.632693 78.541020 72.697799
v 111.412339 78.541020 84.758877
v 104.613956 78.541020 95.578442
v 95.578442 78.541020 104.613956
v 84.758877 78.541020 111.412339
v 72.697799 78.541020 115.632693
v 60.000000 78.541020 117.063391
v 47.302201 78.541020 115.632693
v 35.241123 78.541020 111.412339
v 24.421558 78.541020 104.613956
v 15.386044 78.541020 95.578442
v 8.587661 78.541020 84.758877
v 4.367307 78.541020 72.697799
v 2.936609 78.541020 60.000000
v 4.367307 78.541020 47.302201
v 8.587661 78.541020 35.241123
v 15.386044 78.541020 24.421558
v 24.421558 78.541020 15.386044
v 35.241123 78.541020 8.587661
v 47.302201 78.541020 4.367307
v 60.000000 78.541020 2.936609
v 72.697799 78.541020 4.367307
v 84.758877 78.541020 8.587661
v 95.578442 78.541020 15.386044
v 104.613956 78.541020 24.421558
v 111.412339 78.541020 35.241123
v 115.632693 78.541020 47.302201
v 119.261300 69.386068 60.000000
v 117.775496 69.386068 73.186880
v 113.392587 69.386068 85.712515
v 106.332350 69.386068 96.948816
v 96.948816 69.386068 106.332350
v 85.712515 69.386068 113.392587
v 73.186880 69.386068 117.775496
v 60.000000 69.386068 119.261300
v 46.813120 69.386068 117.775496
v 34.287485 69.386068 113.392587
v 23.051184 69.386068 106.332350
v 13.667650 69.386068 96.948816
v 6.607413 69.386068 85.712515
v 2.224504 69.386068 73.186880
v 0.738700 69.386068 60.000000
v 2.224504 69.386068 46.813120
v 6.607413 69.386068 34.287485
v 13.667650 69.386068 23.051184
v 23.051184 69.386068 13.667650
v 34.287485 69.386068 6.607413
v 46.813120 69.386068 2.224504
v 60.000000 69.386068 0.738700
v 73.186880 69.386068 2.224504
v 85.712515 69.386068 6.607413
v 96.948816 69.386068 13.667650
v 106.332350 69.386068 23.051184
v 113.392587 69.386068 34.287485
v 117.775496 69.386068 46.813120
v 120.000000 60.000000 60.000000
v 118.495675 60.000000 73.351256
v 114.058132 60.000000 86.033024
v 106.909889 60.000000 97.409388
v 97.409388 60.000000 106.909889
v 86.033024 60.000000 114.058132
v 73.351256 60.000000 118.495675
v 60.000000 60.000000 120.000000
v 46.648744 60.000000 118.495675
v 33.966976 60.000000 114.058132
v 22.590612 60.000000 106.909889
v 13.090111 60.000000 97.409388
v 5.941868 60.000000 86.033024
v 1.504325 60.000000 73.351256
v 0.000000 60.000000 60.000000
v 1.504325 60.000000 46.648744
v 5.941868 60.000000 33.966976
v 13.090111 60.000000 22.590612
v 22.590612 60.000000 13.090111
v 33.966976 60.000000 5.941868
v 46.648744 60.000000 1.504325
v 60.000000 60.000000 0.000000
v 73.351256 60.000000 1.504325
v 86.033024 60.000000 5.941868
v 97.409388 60.000000 13.090111
v 106.909889 60.000000 22.590612
v 114.058132 60.000000 33.966976
v 118.495675 60.000000 46.648744
v 119.261300 50.613932 60.000000
v 117.775496 50.613932 73.186880
v 113.392587 50.613932 85.712515
v 106.332350 50.613932 96.948816
v 96.948816 50.613932 106.332350
v 85.712515 50.613932 113.392587
v 73.186880 50.613932 117.775496
v 60.000000 50.613932 119.261300
v 46.813120 50.613932 117.775496
v 34.287485 50.613932 113.392587
v 23.051184 50.613932 106.332350
v 13.667650 50.613932 96.948816
v 6.607413 50.613932 85.712515
v 2.224504 50.613932 73.186880
v 0.738700 50.613932 60.000000
v 2.224504 50.613932 46.813120
v 6.607413 50.613932 34.287485
v 13.667650 50.613932 23.051184
v 23.051184 50.613932 13.667650
v 34.287485 50.613932 6.607413
v 46.813120 50.613932 2.224504
v 60.000000 50.613932 0.738700
v 73.186880 50.613932 2.224504
v 85.712515 50.613932 6.607413
v 96.948816 50.613932 13.667650
v 106.332350 50.613932 23.051184
v 113.392587 50.613932 34.287485
v 117.775496 50.613932 46.813120
v 117.063391 41.458980 60.000000
v 115.632693 41.458980 72.697799
v 111.412339 41.458980 84.758877
v 104.613956 41.458980 95.578442
v 95.578442 41.458980 104.613956
v 84.758877 41.458980 111.412339
v 72.697799 41.458980 115.632693
v 60.000000 41.458980 117.063391
v 47.302201 41.458980 115.632693
v 35.241123 41.458980 111.412339
v 24.421558 41.458980 104.613956
v 15.386044 41.458980 95.578442
v 8.587661 41.458980 84.758877
v 4.367307 41.458980 72.697799
v 2.936609 41.458980 60.000000
v 4.367307 41.458980 47.302201
v 8.587661 41.458980 35.241123
v 15.386044 41.458980 24.421558
v 24.421558 41.458980 15.386044
v 35.241123 41.458980 8.587661
v 47.302201 41.458980 4.367307
v 60.000000 41.458980 2.936609
v 72.697799 41.458980 4.367307
v 84.758877 41.458980 8.587661
v 95.578442 41.458980 15.386044
v 104.613956 41.458980 24.421558
v 111.412339 41.458980 35.241123
v 115.632693 41.458980 47.302201
v 113.460391 32.760570 60.000000
v 112.120028 32.760570 71.896056
v 108.166148 32.760570 83.195595
v 101.797017 32.760570 93.332009
v 93.332009 32.760570 101.797017
v 83.195595 32.760570 108.166148
v 71.896056 32.760570 112.120028
v 60.000000 32.760570 113.460391
v 48.103944 32.760570 112.120028
v 36.804405 32.760570 108.166148
v 26.667991 32.760570 101.797017
v 18.202983 32.760570 93.332009
v 11.833852 32.760570 83.195595
v 7.879972 32.760570 71.896056
v 6.539609 32.760570 60.000000
v 7.879972 32.760570 48.103944
v 11.833852 32.760570 36.804405
v 18.202983 32.760570 26.667991
v 26.667991 32.760570 18.202983
v 36.804405 32.760570 11.833852
v 48.103944 32.760570 7.879972
v 60.000000 32.760570 6.539609
v 71.896056 32.760570 7.879972
v 83.195595 32.760570 11.833852
v 93.332009 32.760570 18.202983
v 101.797017 32.760570 26.667991
v 108.166148 32.760570 36.804405
v 112.120028 32.760570 48.103944
v 108.541020 24.732885 60.000000
v 107.323995 24.732885 70.801393
v 103.733948 24.732885 81.061159
v 97.950897 24.732885 90.264831
v 90.264831 24.732885 97.950897
v 81.061159 24.732885 103.733948
v 70.801393 24.732885 107.323995
v 60.000000 24.732885 108.541020
v 49.198607 24.732885 107.323995
v 38.938841 24.732885 103.733948
v 29.735169 24.732885 97.950897
v 22.049103 24.732885 90.264831
v 16.266052 24.732885 81.061159
v 12.676005 24.732885 70.801393
v 11.458980 24.732885 60.000000
v 12.676005 24.732885 49.198607
v 16.266052 24.732885 38.938841
v 22.049103 24.732885 29.735169
v 29.735169 24.732885 22.049103
v 38.938841 24.732885 16.266052
v 49.198607 24.732885 12.676005
v 60.000000 24.732885 11.458980
v 70.801393 24.732885 12.676005
v 81.061159 24.732885 16.266052
v 90.264831 24.732885 22.049103
v 97.950897 24.732885 29.735169
v 103.733948 24.732885 38.938841
v 107.323995 24.732885 49.198607
v 102.426407 17.573593 60.000000
v 101.362688 17.573593 69.440764
v 98.224872 17.573593 78.408128
v 93.170301 17.573593 86.452432
v 86.452432 17.573593 93.170301
v 78.408128 17.573593 98.224872
v 69.440764 17.573593 101.362688
v 60.000000 17.573593 102.426407
v 50.559236 17.573593 101.362688
v 41.591872 17.573593 98.224872
v 33.547568 17.573593 93.170301
v 26.829699 17.573593 86.452432
v 21.775128 17.573593 78.408128
v 18.637312 17.573593 69.440764
v 17.573593 17.573593 60.000000
v 18.637312 17.573593 50.559236
v 21.775128 17.573593 41.591872
v 26.829699 17.573593 33.547568
v 33.547568 17.573593 26.829699
v 41.591872 17.573593 21.775128
v 50.559236 17.573593 18.637312
v 60.000000 17.573593 17.573593
v 69.440764 17.573593 18.637312
v 78.408128 17.573593 21.775128
v 86.452432 17.573593 26.829699
v 93.170301 17.573593 33.547568
v 98.224872 17.573593 41.591872
v 101.362688 17.573593 50.559236
v 95.267115 11.458980 60.000000
v 94.382895 11.458980 67.847671
v 91.774573 11.458980 75.301828
v 87.572941 11.458980 81.988687
v 81.988687 11.458980 87.572941
v 75.301828 11.458980 91.774573
v 67.847671 11.458980 94.382895
v 60.000000 11.458980 95.267115
v 52.152329 11.458980 94.382895
v 44.698172 11.458980 91.774573
v 38.011313 11.458980 87.572941
v 32.427059 11.458980 81.988687
v 28.225427 11.458980 75.301828
v 25.617105 11.458980 67.847671
v 24.732885 11.458980 60.000000
v 25.617105 11.458980 52.152329
v 28.225427 11.458980 44.698172
v 32.427059 11.458980 38.011313
v 38.011313 11.458980 32.427059
v 44.698172 11.458980 28.225427
v 52.152329 11.458980 25.617105
v 60.000000 11.458980 24.732885
v 67.847671 11.458980 25.617105
v 75.301828 11.458980 28.225427
v 81.988687 11.458980 32.427059
v 87.572941 11.458980 38.011313
v 91.774573 11.458980 44.698172
v 94.382895 11.458980 52.152329
v 87.239430 6.539609 60.000000
v 86.556481 6.539609 66.061343
v 84.541878 6.539609 71.818746
v 81.296644 6.539609 76.983507
v 76.983507 6.539609 81.296644
v 71.818746 6.539609 84.541878
v 66.061343 6.539609 86.556481
v 60.000000 6.539609 87.239430
v 53.938657 6.539609 86.556481
v 48.181254 6.539609 84.541878
v 43.016493 6.539609 81.296644
v 38.703356 6.539609 76.983507
v 35.458122 6.539609 71.818746
v 33.443519 6.539609 66.061343
v 32.760570 6.539609 60.000000
v 33.443519 6.539609 53.938657
v 35.458122 6.539609 48.181254
v 38.703356 6.539609 43.016493
v 43.016493 6.539609 38.703356
v 48.181254 6.539609 35.458122
v 53.938657 6.539609 33.443519
v 60.000000 6.539609 32.760570
v 66.061343 6.539609 33.443519
v 71.818746 6.539609 35.458122
v 76.983507 6.539609 38.703356
v 81.296644 6.539609 43.016493
v 84.541878 6.539609 48.181254
v 86.556481 6.539609 53.938657
v 78.541020 2.936609 60.000000
v 78.076158 2.936609 64.125765
v 76.704881 2.936609 68.044647
v 74.495953 2.936609 71.560137
v 71.560137 2.936609 74.495953
v 68.044647 2.936609 76.704881
v 64.125765 2.936609 78.076158
v 60.000000 2.936609 78.541020
v 55.874235 2.936609 78.076158
v 51.955353 2.936609 76.704881
v 48.439863 2.936609 74.495953
v 45.504047 2.936609 71.560137
v 43.295119 2.936609 68.044647
v 41.923842 2.936609 64.125765
v 41.458980 2.936609 60.000000
v 41.923842 2.936609 55.874235
v 43.295119 2.936609 51.955353
v 45.504047 2.936609 48.439863
v 48.439863 2.936609 45.504047
v 51.955353 2.936609 43.295119
v 55.874235 2.936609 41.923842
v 60.000000 2.936609 41.458980
v 64.125765 2.936609 41.923842
v 68.044647 2.936609 43.295119
v 71.560137 2.936609 45.504047
v 74.495953 2.936609 48.439863
v 76.704881 2.936609 51.955353
v 78.076158 2.936609 55.874235
v 69.386068 0.738700 60.000000
v 69.150740 0.738700 62.088597
v 68.456555 0.738700 64.072462
v 67.338323 0.738700 65.852118
v 65.852118 0.738700 67.338323
v 64.072462 0.738700 68.456555
v 62.088597 0.738700 69.150740
v 60.000000 0.738700 69.386068
v 57.911403 0.738700 69.150740
v 55.927538 0.738700 68.456555
v 54.147882 0.738700 67.338323
v 52.661677 0.738700 65.852118
v 51.543445 0.738700 64.072462
v 50.849260 0.738700 62.088597
v 50.613932 0.738700 60.000000
v 50.849260 0.738700 57.911403
v 51.543445 0.738700 55.927538
v 52.661677 0.738700 54.147882
v 54.147882 0.738700 52.661677
v 55.927538 0.738700 51.543445
v 57.911403 0.738700 50.849260
v 60.000000 0.738700 50.613932
v 62.088597 0.738700 50.849260
v 64.072462 0.738700 51.543445
v 65.852118 0.738700 52.661677
v 67.338323 0.738700 54.147882
v 68.456555 0.738700 55.927538
v 69.150740 0.738700 57.911403
v 60.000000 0.000000 60.000000
v 60.000000 0.000000 60.000000
v 60.000000 0.000000 60.000000
v 60.000000 0.000000 60.000000
v 60.000000 0.000000 60.000000
v 60.000000 0.000000 60.000000
v 60.000000 0.000000 60.000000
v 60.000000 0.000000 60.000000
v 60.000000 0.000000 60.000000
v 60.000000 0.000000 60.000000
v 60.000000 0.000000 60.000000
v 60.000000 0.000000 60.000000
v 60.000000 0.000000 60.000000
v 60.000000 0.000000 60.000000
v 60.000000 0.000000 60.000000
v 60.000000 0.000000 60.000000
v 60.000000 0.000000 60.000000
v 60.000000 0.000000 60.000000
v 60.000000 0.000000 60.000000
v 60.000000 0.000000 60.000000
v 60.000000 0.000000 60.000000
v 60.000000 0.000000 60.000000
v 60.000000 0.000000 60.000000
v 60.000000 0.000000 60.000000
v 60.000000 0.000000 60.000000
v 60.000000 0.000000 60.000000
v 60.000000 0.000000 60.000000
v 60.000000 0.000000 60.000000
f 2 29 30
f 3 30 31
f 4 31 32
f 5 32 33
f 6 33 34
f 7 34 35
f 8 35 36
f 9 36 37
f 10 37 38
f 11 38 39
f 12 39 40
f 13 40 41
f 14 41 42
f 15 42 43
f 16 43 44
f 17 44 45
f 18 45 46
f 19 46 47
f 20 47 48
f 21 48 49
f 22 49 50
f 23 50 51
f 24 51 52
f 25 52 53
f 26 53 54
f 27 54 55
f 28 55 56
f 1 56 29
f 29 57 30
f 30 57 58
f 30 58 31
f 31 58 59
f 31 59 32
f 32 59 60
f 32 60 33
f 33 60 61
f 33 61 34
f 34 61 62
f 34 62 35
f 35 62 63
f 35 63 36
f 36 63 64
f 36 64 37
f 37 64 65
f 37 65 38
f 38 65 66
f 38 66 39
f 39 66 67
f 39 67 40
f 40 67 68
f 40 68 41
f 41 68 69
f 41 69 42
f 42 69 70
f 42 70 43
f 43 70 71
f 43 71 44
f 44 71 72
f 44 72 45
f 45 72 73
f 45 73 46
f 46 73 74
f 46 74 47
f 47 74 75
f 47 75 48
f 48 75 76
f 48 76 49
f 49 76 77
f 49 77 50
f 50 77 78
f 50 78 51
f 51 78 79
f 51 79 52
f 52 79 80
f 52 80 53
f 53 80 81
f 53 81 54
f 54 81 82
f 54 82 55
f 55 82 83
f 55 83 56
f 56 83 84
f 56 84 29
f 29 84 57
f 57 85 58
f 58 85 86
f 58 86 59
f 59 86 87
f 59 87 60
f 60 87 88
f 60 88 61
f 61 88 89
f 61 89 62
f 62 89 90
f 62 90 63
f 63 90 91
f 63 91 64
f 64 91 92
f 64 92 65
f 65 92 93
f 65 93 66
f 66 93 94
f 66 94 67
f 67 94 95
f 67 95 68
f 68 95 96
f 68 96 69
f 69 96 97
f 69 97 70
f 70 97 98
f 70 98 71
f 71 98 99
f 71 99 72
f 72 99 100
f 72 100 73
f 73 100 101
f 73 101 74
f 74 101 102
f 74 102 75
f 75 102 103
f 75 103 76
f 76 103 104
f 76 104 77
f 77 104 105
f 77 105 78
f 78 105 106
f 78 106 79
f 79 106 107
f 79 107 80
f 80 107 108
f 80 108 81
f 81 108 109
f 81 109 82
f 82 109 110
f 82 110 83
f 83 110 111
f 83 111 84
f 84 111 112
f 84 112 57
f 57 112 85
f 85 113 86
f 86 113 114
f 86 114 87
f 87 114 115
f 87 115 88
f 88 115 116
f 88 116 89
f 89 116 117
f 89 117 90
f 90 117 118
f 90 118 91
f 91 118 119
f 91 119 92
f 92 119 120
f 92 120 93
f 93 120 121
f 93 121 94
f 94 121 122
f 94 122 95
f 95 122 123
f 95 123 96
f 96 123 124
f 96 124 97
f 97 124 125
f 97 125 98
f 98 125 126
f 98 126 99
f 99 126 127
f 99 127 100
f 100 127 128
f 100 128 101
f 101 128 129
f 101 129 102
f 102 129 130
f 102 130 103
f 103 130 131
f 103 131 104
f 104 131 132
f 104 132 105
f 105 132 133
f 105 133 106
f 106 133 134
f 106 134 107
f 107 134 135
f 107 135 108
f 108 135 136
f 108 136 109
f 109 136 137
f 109 137 110
f 110 137 138
f 110 138 111
f 111 138 139
f 111 139 112
f 112 139 140
f 112 140 85
f 85 140 113
f 113 141 114
f 114 141 142
f 114 142 115
f 115 142 143
f 115 143 116
f 116 143 144
f 116 144 117
f 117 144 145
f 117 145 118
f 118 145 146
f 118 146 119
f 119 146 147
f 119 147 120
f 120 147 148
f 120 148 121
f 121 148 149
f 121 149 122
f 122 149 150
f 122 150 123
f 123 150 151
f 123 151 124
f 124 151 152
f 124 152 125
f 125 152 153
f 125 153 126
f 126 153 154
f 126 154 127
f 127 154 155
f 127 155 128
f 128 155 156
f 128 156 129
f 129 156 157
f 129 157 130
f 130 157 158
f 130 158 131
f 131 158 159
f 131 159 132
f 132 159 160
f 132 160 133
f 133 160 161
f 133 161 134
f 134 161 162
f 134 162 135
f 135 162 163
f 135 163 136
f 136 163 164
f 136 164 137
f 137 164 165
f 137 165 138
f 138 165 166
f 138 166 139
f 139 166 167
f 139 167 140
f 140 167 168
f 140 168 113
f 113 168 141
f 141 169 142
f 142 169 170
f 142 170 143
f 143 170 171
f 143 171 144
f 144 171 172
f 144 172 145
f 145 172 173
f 145 173 146
f 146 173 174
f 146 174 147
f 147 174 175
f 147 175 148
f 148 175 176
f 148 176 149
f 149 176 177
f 149 177 150
f 150 177 178
f 150 178 151
f 151 178 179
f 151 179 152
f 152 179 180
f 152 180 153
f 153 180 181
f 153 181 154
f 154 181 182
f 154 182 155
f 155 182 183
f 155 183 156
f 156 183 184
f 156 184 157
f 157 184 185
f 157 185 158
f 158 185 186
f 158 186 159
f 159 186 187
f 159 187 160
f 160 187 188
f 160 188 161
f 161 188 189
f 161 189 162
f 162 189 190
f 162 190 163
f 163 190 191
f 163 191 164
f 164 191 192
f 164 192 165
f 165 192 193
f 165 193 166
f 166 193 194
f 166 194 167
f 167 194 195
f 167 195 168
f 168 195 196
f 168 196 141
f 141 196 169
f 169 197 170
f 170 197 198
f 170 198 171
f 171 198 199
f 171 199 172
f 172 199 200
f 172 200 173
f 173 200 201
f 173 201 174
f 174 201 202
f 174 202 175
f 175 202 203
f 175 203 176
f 176 203 204
f 176 204 177
f 177 204 205
f 177 205 178
f 178 205 206
f 178 206 179
f 179 206 207
f 179 207 180
f 180 207 208
f 180 208 181
f 181 208 209
f 181 209 182
f 182 209 210
f 182 210 183
f 183 210 211
f 183 211 184
f 184 211 212
f 184 212 185
f 185 212 213
f 185 213 186
f 186 213 214
f 186 214 187
f 187 214 215
f 187 215 188
f 188 215 216
f 188 216 189
f 189 216 217
f 189 217 190
f 190 217 218
f 190 218 191
f 191 218 219
f 191 219 192
f 192 219 220
f 192 220 193
f 193 220 221
f 193 221 194
f 194 221 222
f 194 222 195
f 195 222 223
f 195 223 196
f 196 223 224
f 196 224 169
f 169 224 197
f 197 225 198
f 198 225 226
f 198 226 199
f 199 226 227
f 199 227 200
f 200 227 228
f 200 228 201
f 201 228 229
f 201 229 202
f 202 229 230
f 202 230 203
f 203 230 231
f 203 231 204
f 204 231 232
f 204 232 205
f 205 232 233
f 205 233 206
f 206 233 234
f 206 234 207
f 207 234 235
f 207 235 208
f 208 235 236
f 208 236 209
f 209 236 237
f 209 237 210
f 210 237 238
f 210 238 211
f 211 238 239
f 211 239 212
f 212 239 240
f 212 240 213
f 213 240 241
f 213 241 214
f 214 241 242
f 214 242 215
f 215 242 243
f 215 243 216
f 216 243 244
f 216 244 217
f 217 244 245
f 217 245 218
f 218 245 246
f 218 246 219
f 219 246 247
f 219 247 220
f 220 247 248
f 220 248 221
f 221 248 249
f 221 249 222
f 222 249 250
f 222 250 223
f 223 250 251
f 223 251 224
f 224 251 252
f 224 252 197
f 197 252 225
f 225 253 226
f 226 253 254
f 226 254 227
f 227 254 255
f 227 255 228
f 228 255 256
f 228 256 229
f 229 256 257
f 229 257 230
f 230 257 258
f 230 258 231
f 231 258 259
f 231 259 232
f 232 259 260
f 232 260 233
f 233 260 261
f 233 261 234
f 234 261 262
f 234 262 235
f 235 262 263
f 235 263 236
f 236 263 264
f 236 264 237
f 237 264 265
f 237 265 238
f 238 265 266
f 238 266 239
f 239 266 267
f 239 267 240
f 240 267 268
f 240 268 241
f 241 268 269
f 241 269 242
f 242 269 270
f 242 270 243
f 243 270 271
f 243 271 244
f 244 271 272
f 244 272 245
f 245 272 273
f 245 273 246
f 246 273 274
f 246 274 247
f 247 274 275
f 247 275 248
f 248 275 276
f 248 276 249
f 249 276 277
f 249 277 250
f 250 277 278
f 250 278 251
f 251 278 279
f 251 279 252
f 252 279 280
f 252 280 225
f 225 280 253
f 253 281 254
f 254 281 282
f 254 282 255
f 255 282 283
f 255 283 256
f 256 283 284
f 256 284 257
f 257 284 285
f 257 285 258
f 258 285 286
f 258 286 259
f 259 286 287
f 259 287 260
f 260 287 288
f 260 288 261
f 261 288 289
f 261 289 262
f 262 289 290
f 262 290 263
f 263 290 291
f 263 291 264
f 264 291 292
f 264 292 265
f 265 292 293
f 265 293 266
f 266 293 294
f 266 294 267
f 267 294 295
f 267 295 268
f 268 295 296
f 268 296 269
f 269 296 297
f 269 297 270
f 270 297 298
f 270 298 271
f 271 298 299
f 271 299 272
f 272 299 300
f 272 300 273
f 273 300 301
f 273 301 274
f 274 301 302
f 274 302 275
f 275 302 303
f 275 303 276
f 276 303 304
f 276 304 277
f 277 304 305
f 277 305 278
f 278 305 306
f 278 306 279
f 279 306 307
f 279 307 280
f 280 307 308
f 280 308 253
f 253 308 281
f 281 309 282
f 282 309 310
f 282 310 283
f 283 310 311
f 283 311 284
f 284 311 312
f 284 312 285
f 285 312 313
f 285 313 286
f 286 313 314
f 286 314 287
f 287 314 315
f 287 315 288
f 288 315 316
f 288 316 289
f 289 316 317
f 289 317 290
f 290 317 318
f 290 318 291
f 291 318 319
f 291 319 292
f 292 319 320
f 292 320 293
f 293 320 321
f 293 321 294
f 294 321 322
f 294 322 295
f 295 322 323
f 295 323 296
f 296 323 324
f 296 324 297
f 297 324 325
f 297 325 298
f 298 325 326
f 298 326 299
f 299 326 327
f 299 327 300
f 300 327 328
f 300 328 301
f 301 328 329
f 301 329 302
f 302 329 330
f 302 330 303
f 303 330 331
f 303 331 304
f 304 331 332
f 304 332 305
f 305 332 333
f 305 333 306
f 306 333 334
f 306 334 307
f 307 334 335
f 307 335 308
f 308 335 336
f 308 336 281
f 281 336 309
f 309 337 310
f 310 337 338
f 310 338 311
f 311 338 339
f 311 339 312
f 312 339 340
f 312 340 313
f 313 340 341
f 313 341 314
f 314 341 342
f 314 342 315
f 315 342 343
f 315 343 316
f 316 343 344
f 316 344 317
f 317 344 345
f 317 345 318
f 318 345 346
f 318 346 319
f 319 346 347
f 319 347 320
f 320 347 348
f 320 348 321
f 321 348 349
f 321 349 322
f 322 349 350
f 322 350 323
f 323 350 351
f 323 351 324
f 324 351 352
f 324 352 325
f 325 352 353
f 325 353 326
f 326 353 354
f 326 354 327
f 327 354 355
f 327 355 328
f 328 355 356
f 328 356 329
f 329 356 357
f 329 357 330
f 330 357 358
f 330 358 331
f 331 358 359
f 331 359 332
f 332 359 360
f 332 360 333
f 333 360 361
f 333 361 334
f 334 361 362
f 334 362 335
f 335 362 363
f 335 363 336
f 336 363 364
f 336 364 309
f 309 364 337
f 337 365 338
f 338 365 366
f 338 366 339
f 339 366 367
f 339 367 340
f 340 367 368
f 340 368 341
f 341 368 369
f 341 369 342
f 342 369 370
f 342 370 343
f 343 370 371
f 343 371 344
f 344 371 372
f 344 372 345
f 345 372 373
f 345 373 346
f 346 373 374
f 346 374 347
f 347 374 375
f 347 375 348
f 348 375 376
f 348 376 349
f 349 376 377
f 349 377 350
f 350 377 378
f 350 378 351
f 351 378 379
f 351 379 352
f 352 379 380
f 352 380 353
f 353 380 381
f 353 381 354
f 354 381 382
f 354 382 355
f 355 382 383
f 355 383 356
f 356 383 384
f 356 384 357
f 357 384 385
f 357 385 358
f 358 385 386
f 358 386 359
f 359 386 387
f 359 387 360
f 360 387 388
f 360 388 361
f 361 388 389
f 361 389 362
f 362 389 390
f 362 390 363
f 363 390 391
f 363 391 364
f 364 391 392
f 364 392 337
f 337 392 365
f 365 393 366
f 366 393 394
f 366 394 367
f 367 394 395
f 367 395 368
f 368 395 396
f 368 396 369
f 369 396 397
f 369 397 370
f 370 397 398
f 370 398 371
f 371 398 399
f 371 399 372
f 372 399 400
f 372 400 373
f 373 400 401
f 373 401 374
f 374 401 402
f 374 402 375
f 375 402 403
f 375 403 376
f 376 403 404
f 376 404 377
f 377 404 405
f 377 405 378
f 378 405 406
f 378 406 379
f 379 406 407
f 379 407 380
f 380 407 408
f 380 408 381
f 381 408 409
f 381 409 382
f 382 409 410
f 382 410 383
f 383 410 411
f 383 411 384
f 384 411 412
f 384 412 385
f 385 412 413
f 385 413 386
f 386 413 414
f 386 414 387
f 387 414 415
f 387 415 388
f 388 415 416
f 388 416 389
f 389 416 417
f 389 417 390
f 390 417 418
f 390 418 391
f 391 418 419
f 391 419 392
f 392 419 420
f 392 420 365
f 365 420 393
f 393 421 394
f 394 421 422
f 394 422 395
f 395 422 423
f 395 423 396
f 396 423 424
f 396 424 397
f 397 424 425
f 397 425 398
f 398 425 426
f 398 426 399
f 399 426 427
f 399 427 400
f 400 427 428
f 400 428 401
f 401 428 429
f 401 429 402
f 402 429 430
f 402 430 403
f 403 430 431
f 403 431 404
f 404 431 432
f 404 432 405
f 405 432 433
f 405 433 406
f 406 433 434
f 406 434 407
f 407 434 435
f 407 435 408
f 408 435 436
f 408 436 409
f 409 436 437
f 409 437 410
f 410 437 438
f 410 438 411
f 411 438 439
f 411 439 412
f 412 439 440
f 412 440 413
f 413 440 441
f 413 441 414
f 414 441 442
f 414 442 415
f 415 442 443
f 415 443 416
f 416 443 444
f 416 444 417
f 417 444 445
f 417 445 418
f 418 445 446
f 418 446 419
f 419 446 447
f 419 447 420
f 420 447 448
f 420 448 393
f 393 448 421
f 421 449 422
f 422 449 450
f 422 450 423
f 423 450 451
f 423 451 424
f 424 451 452
f 424 452 425
f 425 452 453
f 425 453 426
f 426 453 454
f 426 454 427
f 427 454 455
f 427 455 428
f 428 455 456
f 428 456 429
f 429 456 457
f 429 457 430
f 430 457 458
f 430 458 431
f 431 458 459
f 431 459 432
f 432 459 460
f 432 460 433
f 433 460 461
f 433 461 434
f 434 461 462
f 434 462 435
f 435 462 463
f 435 463 436
f 436 463 464
f 436 464 437
f 437 464 465
f 437 465 438
f 438 465 466
f 438 466 439
f 439 466 467
f 439 467 440
f 440 467 468
f 440 468 441
f 441 468 469
f 441 469 442
f 442 469 470
f 442 470 443
f 443 470 471
f 443 471 444
f 444 471 472
f 444 472 445
f 445 472 473
f 445 473 446
f 446 473 474
f 446 474 447
f 447 474 475
f 447 475 448
f 448 475 476
f 448 476 421
f 421 476 449
f 449 477 450
f 450 477 478
f 450 478 451
f 451 478 479
f 451 479 452
f 452 479 480
f 452 480 453
f 453 480 481
f 453 481 454
f 454 481 482
f 454 482 455
f 455 482 483
f 455 483 456
f 456 483 484
f 456 484 457
f 457 484 485
f 457 485 458
f 458 485 486
f 458 486 459
f 459 486 487
f 459 487 460
f 460 487 488
f 460 488 461
f 461 488 489
f 461 489 462
f 462 489 490
f 462 490 463
f 463 490 491
f 463 491 464
f 464 491 492
f 464 492 465
f 465 492 493
f 465 493 466
f 466 493 494
f 466 494 467
f 467 494 495
f 467 495 468
f 468 495 496
f 468 496 469
f 469 496 497
f 469 497 470
f 470 497 498
f 470 498 471
f 471 498 499
f 471 499 472
f 472 499 500
f 472 500 473
f 473 500 501
f 473 501 474
f 474 501 502
f 474 502 475
f 475 502 503
f 475 503 476
f 476 503 504
f 476 504 449
f 449 504 477
f 477 505 478
f 478 505 506
f 478 506 479
f 479 506 507
f 479 507 480
f 480 507 508
f 480 508 481
f 481 508 509
f 481 509 482
f 482 509 510
f 482 510 483
f 483 510 511
f 483 511 484
f 484 511 512
f 484 512 485
f 485 512 513
f 485 513 486
f 486 513 514
f 486 514 487
f 487 514 515
f 487 515 488
f 488 515 516
f 488 516 489
f 489 516 517
f 489 517 490
f 490 517 518
f 490 518 491
f 491 518 519
f 491 519 492
f 492 519 520
f 492 520 493
f 493 520 521
f 493 521 494
f 494 521 522
f 494 522 495
f 495 522 523
f 495 523 496
f 496 523 524
f 496 524 497
f 497 524 525
f 497 525 498
f 498 525 526
f 498 526 499
f 499 526 527
f 499 527 500
f 500 527 528
f 500 528 501
f 501 528 529
f 501 529 502
f 502 529 530
f 502 530 503
f 503 530 531
f 503 531 504
f 504 531 532
f 504 532 477
f 477 532 505
f 505 533 506
f 506 533 534
f 506 534 507
f 507 534 535
f 507 535 508
f 508 535 536
f 508 536 509
f 509 536 537
f 509 537 510
f 510 537 538
f 510 538 511
f 511 538 539
f 511 539 512
f 512 539 540
f 512 540 513
f 513 540 541
f 513 541 514
f 514 541 542
f 514 542 515
f 515 542 543
f 515 543 516
f 516 543 544
f 516 544 517
f 517 544 545
f 517 545 518
f 518 545 546
f 518 546 519
f 519 546 547
f 519 547 520
f 520 547 548
f 520 548 521
f 521 548 549
f 521 549 522
f 522 549 550
f 522 550 523
f 523 550 551
f 523 551 524
f 524 551 552
f 524 552 525
f 525 552 553
f 525 553 526
f 526 553 554
f 526 554 527
f 527 554 555
f 527 555 528
f 528 555 556
f 528 556 529
f 529 556 557
f 529 557 530
f 530 557 558
f 530 558 531
f 531 558 559
f 531 559 532
f 532 559 560
f 532 560 505
f 505 560 533
f 533 561 534
f 534 562 535
f 535 563 536
f 536 564 537
f 537 565 538
f 538 566 539
f 539 567 540
f 540 568 541
f 541 569 542
f 542 570 543
f 543 571 544
f 544 572 545
f 545 573 546
f 546 574 547
f 547 575 548
f 548 576 549
f 549 577 550
f 550 578 551
f 551 579 552
f 552 580 553
f 553 581 554
f 554 582 555
f 555 583 556
f 556 584 557
f 557 585 558
f 558 586 559
f 559 587 560
f 560 588 533
